<?xml version="1.0" standalone="no"?>
<!DOCTYPE svg PUBLIC "-//W3C//DTD SVG 20010904//EN"
 "http://www.w3.org/TR/2001/REC-SVG-20010904/DTD/svg10.dtd">
<svg version="1.0" xmlns="http://www.w3.org/2000/svg"
 width="1536.000000pt" height="1024.000000pt" viewBox="0 0 1536.000000 1024.000000"
 preserveAspectRatio="xMidYMid meet">

<g transform="translate(0.000000,1024.000000) scale(0.100000,-0.100000)"
fill="#000000" stroke="none">
<path d="M4323 7746 c-122 -62 -174 -140 -181 -274 -4 -77 -2 -87 27 -147 35
-71 90 -124 163 -158 45 -20 47 -23 43 -57 -2 -19 -16 -195 -30 -390 -15 -195
-28 -360 -30 -366 -2 -8 -104 6 -316 42 -171 30 -313 55 -314 56 -1 2 -7 23
-14 46 -18 64 -82 128 -145 147 -57 17 -126 12 -165 -12 -13 -8 -27 -11 -31
-6 -14 15 -187 248 -238 320 -45 64 -50 76 -42 98 6 15 10 53 10 86 0 220
-283 310 -404 129 -61 -90 -44 -215 40 -288 59 -53 119 -69 193 -53 66 14 41
38 229 -219 122 -168 127 -177 120 -210 -13 -58 0 -133 33 -184 16 -26 29 -49
29 -52 0 -5 -45 -65 -233 -309 -47 -60 -75 -89 -86 -86 -9 2 -59 4 -111 5 -83
1 -102 -3 -151 -26 -31 -14 -74 -42 -96 -62 l-40 -35 -83 43 -84 44 3 45 c12
208 -228 318 -375 172 -106 -106 -70 -292 68 -350 53 -21 145 -19 192 4 l38
20 84 -50 c80 -47 84 -51 77 -77 -5 -15 -8 -63 -7 -107 0 -94 28 -166 89 -234
l37 -41 -50 -67 c-27 -38 -61 -86 -76 -109 l-27 -41 -74 5 c-66 4 -81 2 -129
-22 -59 -29 -94 -64 -129 -130 -17 -33 -22 -57 -21 -121 0 -95 19 -140 87
-202 87 -80 238 -96 335 -36 91 56 152 174 137 266 -9 55 -42 131 -66 153 -10
9 -19 21 -19 26 0 22 146 218 158 213 7 -3 43 -9 78 -15 61 -10 114 -6 189 15
17 5 32 -14 95 -117 41 -67 121 -197 178 -287 l103 -165 -18 -40 c-45 -101 -6
-225 87 -273 65 -34 169 -29 229 10 87 58 115 179 63 278 -22 43 -38 59 -82
82 -48 25 -63 28 -120 25 l-65 -5 -41 71 c-22 39 -98 163 -167 276 -70 113
-127 210 -127 216 0 6 12 21 26 35 59 54 102 190 90 282 -12 86 -45 156 -100
213 -29 30 -49 55 -46 56 8 4 64 76 194 248 l118 155 46 1 c58 1 119 31 160
78 l31 36 223 -39 c123 -21 260 -44 305 -52 46 -7 88 -16 95 -20 9 -6 7 -65
-10 -261 -12 -139 -26 -318 -32 -398 -15 -198 -10 -184 -77 -203 l-58 -16 -49
55 -49 55 -1 79 c-1 70 -4 83 -31 122 -44 61 -95 88 -173 88 -138 0 -220 -91
-210 -231 3 -47 10 -66 35 -96 64 -80 148 -109 233 -79 62 22 65 21 98 -25
l30 -41 -39 -51 c-54 -71 -72 -138 -67 -246 3 -64 10 -98 27 -131 56 -110 148
-186 260 -216 l64 -18 -7 -90 c-10 -138 -36 -446 -42 -491 -4 -34 -11 -44 -49
-67 -74 -45 -125 -142 -125 -238 0 -128 130 -250 265 -250 55 0 135 30 175 66
147 133 94 390 -92 446 -44 13 -43 10 -28 153 5 50 14 162 20 250 16 241 12
228 71 249 67 24 147 86 184 141 17 24 36 45 43 45 7 0 74 -11 150 -26 75 -14
342 -63 592 -109 621 -115 569 -103 577 -134 43 -182 241 -278 405 -198 168
83 211 300 87 441 -58 66 -116 91 -214 91 -70 0 -87 -4 -134 -30 -53 -29 -120
-104 -121 -134 0 -9 -8 -11 -27 -7 -16 4 -138 27 -273 52 -135 24 -337 62
-450 84 -113 21 -285 53 -382 71 l-178 32 0 54 c0 49 2 54 28 64 15 5 166 67
335 136 l309 126 51 -51 c124 -122 317 -153 473 -77 205 100 286 362 172 555
-31 51 -108 129 -150 151 l-37 19 50 148 c55 158 62 172 89 172 29 0 98 58
120 100 45 88 35 183 -28 252 -141 157 -392 64 -392 -145 0 -32 6 -72 14 -90
14 -34 57 -83 94 -107 l23 -15 -47 -136 -47 -136 -83 -6 c-85 -5 -176 -37
-219 -77 -20 -18 -21 -18 -72 39 l-52 58 25 49 c22 43 25 59 22 124 -12 208
-188 322 -401 260 -37 -11 -127 -90 -152 -132 -9 -16 -22 -15 -185 13 -96 17
-176 32 -178 34 -3 2 23 336 56 734 l7 84 40 12 c164 49 252 166 243 325 -7
118 -65 208 -170 265 -45 25 -67 30 -143 33 -87 4 -92 3 -162 -32z m258 -126
c97 -64 119 -194 46 -277 -41 -46 -99 -73 -161 -73 -211 -1 -272 271 -81 362
56 26 147 21 196 -12z m-1686 -406 c29 -19 48 -72 39 -108 -3 -15 -18 -35 -31
-46 -91 -72 -210 64 -128 145 29 29 83 33 120 9z m3074 -675 c35 -12 61 -53
61 -94 0 -92 -108 -134 -174 -69 -62 62 -22 154 75 173 3 0 20 -4 38 -10z
m-2438 -38 c55 -55 31 -146 -45 -171 -41 -13 -75 -2 -105 36 -77 98 61 223
150 135z m1647 -227 c15 -11 37 -40 50 -65 27 -51 25 -107 -5 -148 -24 -33
-98 -71 -138 -71 -17 0 -51 10 -75 23 -160 80 -93 298 88 284 31 -2 64 -12 80
-23z m-579 -109 c201 -35 191 -32 191 -58 1 -60 72 -160 145 -202 77 -46 158
-52 270 -20 16 5 33 -8 77 -57 l56 -64 -24 -70 c-21 -58 -24 -85 -22 -163 l3
-95 -105 -41 c-58 -23 -205 -81 -326 -129 l-222 -88 -68 69 c-56 55 -80 72
-129 88 -33 10 -63 22 -67 25 -4 3 3 150 17 325 14 176 28 356 31 400 6 87 10
105 20 105 4 0 73 -11 153 -25z m-2348 -190 c52 -28 64 -96 25 -142 -20 -23
-32 -28 -71 -28 -39 0 -51 5 -71 28 -36 42 -33 98 7 131 35 30 67 33 110 11z
m3563 -175 c176 -85 216 -300 81 -435 -51 -51 -91 -68 -173 -73 -124 -8 -218
43 -269 146 -77 157 8 337 182 383 46 12 131 3 179 -21z m-2845 -75 c123 -43
193 -167 162 -285 -25 -94 -87 -155 -183 -178 -61 -16 -84 -15 -145 3 -109 32
-191 146 -180 251 7 64 27 104 78 154 67 65 177 88 268 55z m884 -126 c50 -23
62 -95 22 -134 -53 -54 -155 -18 -155 55 0 21 9 41 29 61 31 31 64 36 104 18z
m555 -390 c69 -34 112 -85 137 -160 31 -91 -13 -209 -98 -266 -138 -92 -325
-49 -400 92 -30 56 -29 163 1 221 28 55 95 111 152 129 77 23 139 19 208 -16z
m-1930 -356 c115 -85 87 -237 -49 -273 -138 -37 -246 123 -161 239 44 61 150
78 210 34z m3862 -126 c107 -72 93 -227 -24 -272 -139 -53 -267 91 -193 219
42 74 148 100 217 53z m-2725 -203 c74 -48 38 -164 -52 -164 -40 0 -93 45 -93
80 0 75 84 124 145 84z m731 -680 c73 -35 103 -131 58 -191 -69 -93 -197 -86
-245 14 -26 53 -19 91 24 140 49 55 100 67 163 37z"/>
<path d="M6980 6170 l0 -700 150 0 150 0 0 218 1 217 77 83 77 84 210 -301
210 -301 189 0 c184 0 188 0 175 19 -8 11 -82 116 -166 233 -84 117 -206 289
-271 382 l-120 168 131 157 c72 86 182 219 245 296 l115 140 -169 3 -169 3
-34 -38 c-44 -51 -295 -351 -406 -488 l-90 -109 -3 317 -2 317 -150 0 -150 0
0 -700z"/>
<path d="M8383 6170 l2 -700 153 0 152 0 0 700 0 700 -155 0 -155 0 3 -700z"/>
<path d="M9010 6170 l0 -700 450 0 450 0 0 140 0 140 -300 0 -300 0 0 560 0
560 -150 0 -150 0 0 -700z"/>
<path d="M10120 6868 c-1 -2 -2 -317 -4 -700 l-3 -698 451 0 451 0 -3 140 -3
140 -300 0 -299 0 0 560 0 560 -145 0 c-80 0 -145 -1 -145 -2z"/>
<path d="M11666 6758 c-27 -62 -154 -363 -283 -668 -129 -305 -241 -570 -249
-588 l-14 -32 166 2 167 3 56 150 57 150 278 0 277 0 59 -150 59 -150 165 -3
165 -2 -58 142 c-33 79 -88 213 -124 298 -250 596 -314 748 -354 848 l-46 112
-136 0 -137 0 -48 -112z m292 -565 l60 -153 -174 0 c-96 0 -174 2 -174 5 0 2
18 51 41 107 23 57 57 146 76 198 20 52 40 106 45 120 9 23 12 19 38 -50 15
-41 55 -144 88 -227z"/>
<path d="M11865 5084 c-106 -17 -250 -92 -298 -155 -61 -82 -72 -116 -72 -234
0 -97 3 -116 25 -160 32 -65 110 -142 185 -182 33 -17 128 -54 211 -82 230
-75 274 -104 274 -181 0 -170 -319 -174 -537 -8 -29 22 -56 37 -62 34 -5 -3
-44 -49 -87 -102 l-79 -97 50 -44 c196 -172 550 -224 781 -113 138 66 209 159
223 289 14 144 -20 243 -112 327 -68 63 -150 103 -336 166 -80 27 -163 60
-184 74 -64 42 -75 103 -27 158 40 45 87 60 169 53 84 -7 163 -37 236 -89 46
-33 59 -38 66 -27 4 8 42 62 83 119 l75 105 -27 23 c-44 38 -139 82 -221 103
-75 19 -272 33 -336 23z"/>
<path d="M6972 4978 c17 -40 109 -255 205 -478 96 -223 209 -487 251 -587 l77
-183 116 0 116 0 168 383 c198 449 405 927 405 933 0 2 -74 4 -164 4 l-165 0
-20 -52 c-11 -29 -63 -156 -116 -283 -141 -337 -215 -522 -215 -534 0 -22 -18
-10 -25 16 -3 14 -76 200 -162 412 -86 212 -161 398 -167 414 l-10 27 -163 0
-162 0 31 -72z"/>
<path d="M8430 4390 l0 -660 150 0 150 0 0 660 0 660 -150 0 -150 0 0 -660z"/>
<path d="M9030 4389 l0 -661 368 4 c344 4 371 5 432 26 124 41 212 119 251
221 29 78 24 196 -11 264 -30 60 -86 112 -156 144 l-54 24 47 32 c58 39 97 94
117 168 20 70 20 121 0 189 -29 97 -80 157 -173 204 -81 41 -134 46 -486 46
l-335 0 0 -661z m627 400 c126 -47 115 -224 -16 -268 -19 -6 -96 -11 -172 -11
l-139 0 0 145 0 145 149 0 c82 0 162 -5 178 -11z m67 -524 c51 -26 77 -62 83
-117 7 -58 -15 -100 -69 -136 -41 -27 -44 -27 -225 -30 l-183 -4 0 157 0 156
178 -3 c153 -3 182 -6 216 -23z"/>
<path d="M10330 4390 l0 -660 480 0 480 0 0 125 0 125 -335 2 -336 3 -1 145
-1 145 292 3 291 2 0 115 0 115 -292 2 -291 3 -1 142 -1 143 333 0 332 0 0
125 0 125 -475 0 -475 0 0 -660z"/>
<path d="M7091 2968 c75 -190 93 -212 118 -141 7 21 40 100 71 176 57 133 58
137 35 137 -24 0 -33 -20 -116 -244 l-21 -59 -50 134 c-27 74 -52 142 -55 152
-3 9 -15 17 -28 17 -22 0 -20 -6 46 -172z"/>
<path d="M7520 2965 l0 -175 110 0 c103 0 110 1 110 20 0 19 -7 20 -90 20
l-90 0 0 65 0 65 70 0 c56 0 70 3 70 15 0 12 -14 15 -70 15 l-70 0 0 60 0 60
90 0 c73 0 90 3 90 15 0 12 -19 15 -110 15 l-110 0 0 -175z"/>
<path d="M7960 2965 c0 -170 1 -175 21 -175 20 0 20 4 17 139 -2 77 -1 138 1
136 5 -6 117 -171 153 -227 53 -82 58 -70 58 127 0 166 -1 175 -19 175 -19 0
-20 -7 -17 -135 1 -74 2 -135 1 -135 -1 0 -42 61 -91 135 -122 184 -124 183
-124 -40z"/>
<path d="M8432 3123 c2 -14 15 -19 51 -21 l47 -3 0 -155 c0 -147 1 -154 20
-154 19 0 20 7 20 161 l0 162 50 -5 c44 -4 50 -3 50 13 0 17 -10 19 -121 19
-109 0 -120 -2 -117 -17z"/>
<path d="M8860 2974 c-36 -91 -66 -170 -68 -175 -2 -5 5 -9 15 -9 14 0 26 16
42 55 l23 56 75 -3 75 -3 20 -52 c14 -39 25 -53 39 -53 10 0 19 3 19 7 0 4
-17 50 -39 102 -21 53 -51 129 -66 169 -22 59 -31 72 -48 72 -19 -1 -31 -24
-87 -166z m121 36 l27 -80 -59 0 c-33 0 -59 3 -59 7 0 12 55 153 60 153 3 -1
17 -36 31 -80z"/>
<path d="M9308 3124 c-82 -44 -57 -136 45 -169 73 -24 97 -41 97 -70 0 -61
-75 -83 -149 -45 -32 16 -40 17 -44 6 -11 -28 31 -50 103 -54 66 -4 71 -3 100
26 52 53 36 119 -39 150 -25 11 -57 23 -71 27 -38 11 -50 25 -50 56 0 52 72
76 132 45 26 -14 38 -12 38 6 0 14 -66 38 -102 38 -18 -1 -45 -7 -60 -16z"/>
<path d="M9940 2966 l0 -176 66 0 c37 0 84 5 106 12 129 38 143 254 20 314
-22 11 -67 20 -114 22 l-78 4 0 -176z m176 120 c60 -40 79 -119 45 -188 -26
-54 -44 -65 -120 -74 l-61 -7 0 148 0 148 56 -6 c30 -3 66 -13 80 -21z"/>
<path d="M10450 2965 l0 -175 105 0 c100 0 105 1 105 21 0 18 -6 20 -52 19
-123 -4 -128 -3 -128 28 0 15 3 44 6 65 l7 37 73 0 c58 0 74 3 74 15 0 11 -18
15 -77 17 l-78 3 0 55 0 55 88 0 c76 0 87 2 87 18 0 15 -12 17 -105 17 l-105
0 0 -175z"/>
<path d="M11159 3127 c-60 -27 -98 -90 -99 -162 0 -49 35 -122 72 -149 39 -28
132 -33 178 -9 35 18 35 18 35 85 0 66 -1 68 -25 68 -14 0 -42 3 -62 6 -34 6
-38 4 -38 -15 0 -18 6 -21 45 -21 l45 0 0 -39 c0 -47 -16 -62 -73 -68 -106
-11 -168 102 -118 214 31 67 93 89 168 58 39 -17 49 -14 39 10 -12 33 -112 46
-167 22z"/>
<path d="M11594 2965 c-62 -154 -68 -175 -52 -175 14 0 26 16 44 55 l24 56 76
-3 77 -3 20 -52 c15 -39 25 -53 39 -53 15 0 18 5 14 18 -4 9 -34 88 -68 175
-83 213 -81 213 -174 -18z m125 47 l30 -82 -65 0 c-36 0 -64 4 -62 8 2 4 16
42 32 85 16 43 30 76 32 74 2 -1 16 -40 33 -85z"/>
<path d="M12050 2965 l0 -177 84 3 c90 4 119 17 160 72 31 42 33 131 4 187
-30 58 -77 82 -175 88 l-73 5 0 -178z m171 119 c60 -30 78 -141 34 -206 -26
-39 -70 -58 -132 -58 l-33 0 0 146 0 146 53 -7 c28 -4 64 -13 78 -21z"/>
<path d="M12585 3126 c-42 -18 -83 -69 -91 -112 -23 -125 48 -224 160 -224 33
0 62 7 84 20 31 19 32 22 32 85 l0 65 -45 2 c-25 0 -51 1 -57 2 -7 1 -14 -7
-16 -16 -3 -15 4 -18 37 -18 l41 0 0 -44 c0 -39 -3 -45 -30 -56 -44 -18 -99
-6 -134 30 -28 28 -31 36 -31 99 0 82 20 118 80 140 36 14 71 10 128 -14 12
-5 17 -3 17 9 0 38 -114 59 -175 32z"/>
<path d="M13000 2965 l0 -175 116 0 c105 0 115 2 112 18 -3 14 -17 17 -96 20
l-92 3 0 64 0 65 80 0 c64 0 80 3 80 15 0 12 -16 15 -80 15 l-80 0 0 60 0 60
95 0 c78 0 95 3 95 15 0 12 -19 15 -115 15 l-115 0 0 -175z"/>
<path d="M13382 3123 c3 -14 13 -18 51 -16 l47 1 0 -159 c0 -152 1 -159 20
-159 19 0 20 7 20 159 l0 159 50 -1 c42 -2 50 1 50 16 0 15 -12 17 -121 17
-109 0 -120 -2 -117 -17z"/>
<path d="M13874 3130 c-29 -12 -54 -49 -54 -81 0 -43 34 -75 106 -99 74 -25
96 -51 76 -94 -16 -37 -72 -44 -133 -19 -42 18 -48 19 -54 5 -6 -17 -9 -15 32
-36 79 -40 186 -8 199 59 10 53 -17 83 -107 120 -68 28 -74 33 -77 62 -4 37
26 63 71 63 29 0 67 -16 78 -33 4 -5 12 0 18 12 11 20 9 23 -23 36 -39 16 -99
19 -132 5z"/>
</g>
</svg>
